<?xml version="1.0" encoding="utf-8"?>
<!-- Generator: Adobe Illustrator 27.5.0, SVG Export Plug-In . SVG Version: 6.00 Build 0)  -->
<svg version="1.1" xmlns="http://www.w3.org/2000/svg" xmlns:xlink="http://www.w3.org/1999/xlink" x="0px" y="0px"
	 viewBox="0 0 750 500" style="enable-background:new 0 0 750 500;" xml:space="preserve">
<g id="BACKGROUND">
	<rect style="fill:#FFFFFF;" width="750" height="500"/>
	<g>
		<path style="fill:#F7F7F7;" d="M645.755,431.975l-360.075-0.788l-218.999-0.441c-17.876-65.151-46.635-185.158-9.685-278.145
			C107.512,25.474,253.099,10.04,424.881,24.192c84.416,6.955,197.037,26.779,264.174,128.548
			C741.227,231.824,689.293,384.959,645.755,431.975z"/>
	</g>
	<path style="fill:#F9F3F0;" d="M173.428,427.231c-259.712-2.09-142.583,45.174,12.914,52.212
		c84.277,5.596,582.952-1.721,540.6-43.072c-4.184-4.085-11.444-6.428-19.054-6.532
		C637.056,428.869,209.844,428.426,173.428,427.231z"/>
</g>
<g id="OBJECTS">
	<path style="opacity:0.3;fill:#D8DCE2;" d="M528.735,424.57c0.02,7.519-6.07,13.625-13.59,13.625H158.92
		c-8.1,0-14.76-6.22-15.44-14.15h-0.07v-245.49c0-9.75,7.92-17.66,17.68-17.66h353.405c7.492,0,13.57,6.063,13.59,13.554
		L528.735,424.57z"/>
	<g>
		<path style="fill:#D8DCE2;" d="M579.44,165.285v250.72H156.56v-250.72c0-10.25,8.32-18.57,18.58-18.57h385.72
			c2.7,0,5.27,0.58,7.58,1.62C574.92,151.225,579.44,157.735,579.44,165.285z"/>
		<path style="fill:#FFFFFF;" d="M586.44,165.285v250.72H163.56v-250.72c0-10.25,8.32-18.57,18.58-18.57h385.72
			c2.7,0,5.27,0.58,7.58,1.62C581.92,151.225,586.44,157.735,586.44,165.285z"/>
		<path style="fill:#F7F7F7;" d="M573.049,175.178v212.361c0,8.71-7.055,15.776-15.765,15.776H192.722
			c-8.71,0-15.776-7.066-15.776-15.776V175.178c0-8.71,7.066-15.777,15.776-15.777h364.562
			C565.995,159.402,573.049,166.468,573.049,175.178z"/>
		<g>
			<rect x="442.321" y="161.374" style="fill:#F7F7F7;" width="130.732" height="242.948"/>
			<path style="fill:#D8DCE2;" d="M557.273,403.316h-5.263c8.71,0,15.776-7.055,15.776-15.765V175.475
				c0-8.71-7.066-15.777-15.776-15.777h5.263c8.71,0,15.776,7.066,15.776,15.777v212.076
				C573.049,396.261,565.983,403.316,557.273,403.316z"/>
			<rect x="477.37" y="167.587" style="fill:#EEEEEE;" width="83.799" height="45.037"/>
			<g>
				
					<rect x="548.937" y="331.415" transform="matrix(-1 -1.224647e-16 1.224647e-16 -1 1113.1023 715.3783)" style="fill:#EEEEEE;" width="15.229" height="52.548"/>
				
					<rect x="539.173" y="340.205" transform="matrix(-1 -1.224647e-16 1.224647e-16 -1 1088.4706 724.1678)" style="fill:#EEEEEE;" width="10.125" height="43.758"/>
				
					<rect x="528.905" y="323.159" transform="matrix(-1 -1.224647e-16 1.224647e-16 -1 1069.2319 707.1215)" style="fill:#EEEEEE;" width="11.421" height="60.805"/>
				
					<rect x="517.484" y="336.142" transform="matrix(-1 -1.224647e-16 1.224647e-16 -1 1046.3894 720.1051)" style="fill:#EEEEEE;" width="11.421" height="47.821"/>
				
					<rect x="509.05" y="347.227" transform="matrix(-1 -1.224647e-16 1.224647e-16 -1 1029.521 731.1895)" style="fill:#EEEEEE;" width="11.421" height="36.736"/>
				
					<rect x="497.629" y="323.159" transform="matrix(-1 -1.224647e-16 1.224647e-16 -1 1006.6785 707.1215)" style="fill:#EEEEEE;" width="11.421" height="60.805"/>
				
					<rect x="486.526" y="327.655" transform="matrix(-1 -1.224647e-16 1.224647e-16 -1 984.4739 711.6177)" style="fill:#EEEEEE;" width="11.421" height="56.308"/>
				
					<rect x="477.37" y="327.35" transform="matrix(-1 -1.224647e-16 1.224647e-16 -1 966.1606 711.3133)" style="fill:#EEEEEE;" width="11.421" height="56.613"/>
			</g>
			<g>
				<rect x="477.37" y="237.211" style="fill:#EEEEEE;" width="12.063" height="64.126"/>
				<rect x="489.076" y="247.276" style="fill:#EEEEEE;" width="9.985" height="54.062"/>
				<rect x="497.923" y="240.533" style="fill:#EEEEEE;" width="11.263" height="60.805"/>
				<rect x="509.186" y="253.517" style="fill:#EEEEEE;" width="11.263" height="47.821"/>
				<rect x="517.504" y="247.276" style="fill:#EEEEEE;" width="11.263" height="54.062"/>
				<rect x="528.767" y="240.533" style="fill:#EEEEEE;" width="11.263" height="60.805"/>
				<rect x="539.716" y="256.612" style="fill:#EEEEEE;" width="11.263" height="44.726"/>
				<rect x="548.746" y="244.725" style="fill:#EEEEEE;" width="11.263" height="56.613"/>
			</g>
			<rect x="434.592" y="161.374" style="fill:#FFFFFF;" width="42.778" height="242.948"/>
			<rect x="442.168" y="213.456" style="fill:#FFFFFF;" width="131.037" height="10.278"/>
			<rect x="442.168" y="301.338" style="fill:#FFFFFF;" width="131.037" height="10.278"/>
		</g>
		<path style="fill:#D8DCE2;" d="M573.049,175.178v5.263c0-8.71-7.055-15.777-15.765-15.777H192.722
			c-8.71,0-15.776,7.066-15.776,15.777v-5.263c0-8.71,7.066-15.777,15.776-15.777h364.562
			C565.995,159.402,573.049,166.468,573.049,175.178z"/>
		<path style="fill:none;stroke:#391F31;stroke-width:0.25;stroke-miterlimit:10;" d="M176.945,180.441v-5.263
			c0-8.71,7.066-15.777,15.776-15.777h364.562c8.71,0,15.765,7.066,15.765,15.777v74.856"/>
		<path style="fill:none;stroke:#391F31;stroke-width:0.25;stroke-miterlimit:10;" d="M573.049,274.307v113.233
			c0,8.71-7.055,15.776-15.765,15.776H192.722c-8.71,0-15.776-7.066-15.776-15.776V197.884"/>
		<g>
			<g>
				<path style="fill:none;stroke:#391F31;stroke-width:0.25;stroke-miterlimit:10;" d="M262.762,373.598l-85.675,0.047
					l-0.082-148.827c-0.006-11.286,9.138-20.44,20.424-20.446l44.805-0.024c11.286-0.006,20.44,9.138,20.446,20.424L262.762,373.598
					z"/>
			</g>
			<g>
				<g>
					<path style="fill:#C8B193;" d="M385.742,403.3h-67.33l-6.952-5.936h-69.795c-24.43,0-41.313-22.535-36.77-44.818
						c0.674-3.311,1.815-6.61,3.482-9.84l15.274-29.601l11.336-21.952h56.371l6.587,21.952l6.849,22.809l43.928,8.859
						c6.484,1.313,12.42,4.007,17.489,7.774c9.818,7.26,16.427,18.482,17.649,31.199L385.742,403.3z"/>
					<path style="fill:#B69B79;" d="M366.21,352.546H204.895c0.674-3.311,1.815-6.61,3.482-9.84l15.274-29.601h74.293l6.849,22.809
						l43.928,8.859C355.205,346.085,361.141,348.779,366.21,352.546z"/>
					<path style="fill:none;stroke:#AD8F69;stroke-miterlimit:10;" d="M375.939,385.276L375.939,385.276
						c0-14.585-10.268-27.152-24.56-30.06l-13.123-2.67"/>
					<path style="fill:#B69B79;" d="M241.68,397.355h69.776l0.097,5.957h26.894l-9.882-24.382h-69.799
						c-28.076,0-46.178-29.715-33.294-54.651l17.109-33.132h-7.596l-26.621,51.557C195.502,367.64,213.604,397.355,241.68,397.355z"
						/>
					<path style="fill:none;stroke:#AD8F69;stroke-miterlimit:10;" d="M338.447,403.312l-9.882-24.382h-71.147
						c-28.048,0-45.708-30.211-31.946-54.651l0,0"/>
					<line style="fill:none;stroke:#AD8F69;stroke-miterlimit:10;" x1="311.458" y1="397.366" x2="336.141" y2="371.014"/>
					<path style="fill:#EBCE8B;" d="M403.48,245.065v0.209c-0.12,12.491-11.937,21.526-24.024,18.37l-8.048-2.094l-3.201-0.838
						l-38.819-7.195l-28.108-5.221l-9.604-1.78l10.112-48.632l74.586,24.787l2.693,0.808l10.741,3.216
						C397.93,229.133,403.48,236.613,403.48,245.065z"/>
					<path style="fill:#E2B754;" d="M329.388,253.517l-28.108-5.221l11.282-35.672C324.784,230.814,327.031,240.516,329.388,253.517
						z"/>
					<path style="fill:#EBCE8B;" d="M271.689,244.743l43.701-19.926l0.909,95.297c0.174,7.261-4.543,13.736-11.507,15.796l0,0
						l-35.478,1.757L271.689,244.743z"/>
					<polygon style="fill:#39202F;" points="298.018,263.29 300.322,334.265 283.565,277.288 					"/>
					<g>
						<path style="fill:#BA865B;" d="M215.911,258.03c10.986,19.536,22.299,44.455,36.444,55.915
							c3.497,2.865,6.791,5.257,9.723,7.107l4.354-9.52l19.424-42.48l5.685-12.43l7.806-17.077l6.136-13.423
							c5.798-12.678-0.835-27.342-13.739-31.538c-0.812-0.316-1.67-0.519-2.527-0.722l-17.529-3.632l-33.907,6.317
							c-0.609,0.09-1.263,0.248-1.895,0.383c-20.484,4.535-30.297,11.28-33.975,19.311
							C195.572,230.158,206.436,241.29,215.911,258.03z"/>
					</g>
					<polygon style="fill:#A76E47;" points="275.86,199.072 287.089,226.175 294.607,224.55 					"/>
					<path style="fill:#EBCE8B;" d="M268.385,186.461l36.048,60.815l8.783-13.423c5.798-12.679-0.675-30.298-11.424-35.974
						C298.671,196.231,268.385,186.461,268.385,186.461z"/>
					<polygon style="fill:#39202F;" points="218.07,340.205 304.791,335.91 286.325,270.314 222.933,257.948 					"/>
					<path style="fill:#39202F;" d="M291.542,256.613l-2.678,5.849l-3.007,6.582l-4.847,10.576l-14.585,31.908l-8.901,2.872
						c0,0-1.96-0.12-5.176-0.449c-3.231-2.618-6.881-6.762-10.726-11.818c-12.969-17.098-28.123-44.668-36.59-59.747
						c40.255-17.517,56.859-22.962,85.446-18.654L291.542,256.613z"/>
					<path style="fill:#39202F;" d="M303.539,263.06c-2.543,8.138-9.813,14.256-22.528,16.56c-1.78,0.344-3.68,0.598-5.684,0.763
						l4.892-18.28l10.262-38.37C302.013,237.675,306.979,252.17,303.539,263.06z"/>
					<path style="fill:#2D1323;" d="M303.539,263.06c-2.543,8.138-9.813,14.256-22.528,16.56l-14.585,31.908l-8.901,2.872
						c0,0-1.96-0.12-5.176-0.449c-3.231-2.618-6.881-6.762-10.726-11.818l20.913-64.922l2.711,12.349
						c1.558,7.099,7.709,12.252,14.971,12.543l0,0l8.646,0.359L303.539,263.06z"/>
					<path style="fill:#EBCE8B;" d="M263.837,254.534l-5.505,83.681l-35.737,2.139l-9.125,0.553
						c-10.367,0.628-17.951-9.634-14.316-19.372l18.235-48.766l5.55-14.824l17.128-1.421l23.755-1.99H263.837z"/>
					<g>
						<polygon style="fill:#BA865B;" points="276.762,169.078 275.658,204.361 245.283,197.434 248.547,149.308 						"/>
						<path style="fill:#EBCE8B;" d="M263.823,254.534c-0.673,11.085-4.503,20.688-11.608,29.125
							c-0.494,0.613-1.032,1.212-1.571,1.81c-3.261,3.545-7.106,6.881-11.563,10.008c-1.376,0.987-2.812,1.93-4.308,2.872
							c0,0-8.527-11.085-17.382-25.58c-5.37-8.811-10.875-18.893-14.63-28.482c-3.082-7.839-4.996-15.348-4.757-21.601
							c0.673-17.008,24.937-22.124,24.937-22.124l1.331-0.718l1.346-0.718l20.299-10.95l-0.374,5.4
							C258.647,217.824,264.84,237.825,263.823,254.534z"/>
						<path style="fill:#E2B754;" d="M222.595,340.354l-9.125,0.553c-10.367,0.628-17.951-9.634-14.316-19.372l18.235-48.766
							c-5.37-8.811-10.875-18.893-14.63-28.482l1.122-4.548c0.419-3.77,2.064-7.15,4.548-9.738c2.483-2.603,5.804-4.398,9.529-4.981
							c8.557-1.331,12.122,1.458,15.727,9.329C254.768,280.379,241.571,310.339,222.595,340.354z"/>
						<path style="fill:#A76E47;" d="M276.323,183.122l-0.298,9.52c-12.937-6.178-16.565-15.238-16.565-15.238L276.323,183.122z"/>
						<path style="fill:#BA865B;" d="M252.657,175.099c0,0,21.643,8.024,29.092,9.905c8.016,2.024,15.672-3.222,18.394-11.209
							c3.674-10.783,4.133-22.559,0.686-35.36c-2.038-7.559-6.516-13.922-12.46-18.39c-2.663-2.023-5.64-3.649-8.827-4.808
							l-0.032-0.015l-1.811-0.598l-0.182-0.07c-0.909-0.272-1.826-0.488-2.758-0.672c-2.213-0.462-4.488-0.719-6.809-0.722
							c-2.218-0.012-4.363,0.347-6.349,1.02c-8.345,2.831-14.031,11.244-12.915,20.592l0.982,8.023L252.657,175.099z"/>
						<path style="fill:#2D2D23;" d="M221.057,140.788c-0.128,3.776,3.047,12.541,4.858,15.348l1.36-6.828
							c0,0-0.049,6.317,2.323,10.603c0.026,0,14.24,7.228,17.042,17.494c1.301-5.307,5.257-10.635,9.722-24.794l9.567-37.375
							C236.031,105.975,221.669,121.501,221.057,140.788z"/>
						<path style="fill:#2D2D23;" d="M249.154,159.911c11.166-1.09,17.109-20.367,8.313-34.831c0,0-8.781-16.598-21.037-5.227
							C209.752,144.603,249.154,159.911,249.154,159.911z"/>
						<path style="fill:#BA865B;" d="M259.459,159.576c-14.555-35.993-43.198,2.623-7.027,9.716L259.459,159.576z"/>
						<path style="fill:none;stroke:#EBCE8B;stroke-width:0.5;stroke-miterlimit:10;" d="M249.851,164.496
							c4.352,0.87,7.175,5.104,6.305,9.456c-0.87,4.352-5.104,7.175-9.456,6.305c-4.352-0.87-7.175-5.104-6.305-9.456
							c0.369-1.846,1.343-3.416,2.674-4.547"/>
						<path style="fill:#2D2D23;" d="M275.489,152.305c0.311,2.955-0.529,5.466-1.876,5.608c-1.348,0.142-2.693-2.138-3.004-5.093
							c-0.311-2.955,0.529-5.466,1.876-5.608C273.833,147.069,275.178,149.35,275.489,152.305z"/>
						<path style="fill:#2D2D23;" d="M267.294,138.687c5.696-2.783,7.478,0.12,3.44,2.907
							C266.39,144.591,260.208,142.148,267.294,138.687z"/>
						<path style="fill:#2D2D23;" d="M296.974,149.759c0.224,2.963-0.689,5.448-2.041,5.55c-1.351,0.102-2.628-2.217-2.852-5.18
							c-0.225-2.963,0.689-5.448,2.04-5.55C295.472,144.477,296.75,146.796,296.974,149.759z"/>
						<path style="fill:#2D2D23;" d="M296.005,131.616c6.314-0.559,6.94,2.79,2.171,3.946
							C293.047,136.806,288.15,132.311,296.005,131.616z"/>
						<path style="fill:#BA865B;stroke:#A76E47;stroke-miterlimit:10;" d="M286.987,144.198c2.116,5.312,4.918,8.605,7.484,11.522
							c4.013,4.563-0.134,11.599-6.073,10.318l-1.587-0.342"/>
						<path style="fill:#FFFFFF;" d="M289.876,170.454c-8.466-1.237-9.296-1.234-11.227-1.372c-2.802-0.2,2.323,8.4,7.061,6.988
							C290.448,174.657,292.817,170.883,289.876,170.454z"/>
						<path style="fill:#2D2D23;" d="M254.999,112.85c42.08-25.016,63.244,15.653,26.689,21.435l4.738-11.517
							c0,0-9.698,15.63-27.95,14.687L254.999,112.85z"/>
					</g>
					<path style="fill:#BA865B;" d="M230.551,293.529l73.467,36.799c0,0-49.265,14.652-91.373-2.017L230.551,293.529z"/>
					<path style="fill:#EBCE8B;" d="M231.272,291.632c-0.374,1.361-0.778,2.708-1.212,4.054
						c-3.695,11.534-9.364,22.558-17.412,32.626c0,0-5.52-1.122-10.367-5.64c-0.359-0.344-0.718-0.688-1.062-1.077
						c-3.889-4.144-7.001-10.726-5.864-21.003c2.154-19.372,2.648-77.907,2.648-77.907c0.434-3.755,2.079-7.135,4.563-9.723
						c2.483-2.603,5.789-4.398,9.529-4.981c8.542-1.331,16.844,4.024,18.848,12.431
						C236.507,243.808,237.659,268.625,231.272,291.632z"/>
				</g>
				<g>
					<g>
						<path style="fill:#D8DCE2;" d="M294.529,260.813h77.781c4.435,0,7.69,4.166,6.618,8.47l-13.258,53.201
							c-0.757,3.039-3.487,5.171-6.618,5.171h-77.78c-4.435,0-7.691-4.166-6.618-8.47l13.258-53.201
							C288.669,262.945,291.398,260.813,294.529,260.813z"/>
						<path style="fill:none;stroke:#391F31;stroke-width:0.25;stroke-miterlimit:10;" d="M299.724,260.813h77.781
							c4.435,0,7.69,4.166,6.618,8.47l-13.258,53.201c-0.757,3.039-3.487,5.171-6.618,5.171h-77.78c-4.435,0-7.691-4.166-6.618-8.47
							l13.258-53.201C293.863,262.945,296.593,260.813,299.724,260.813z"/>
					</g>
					<polygon style="fill:#FFFFFF;" points="297.899,291.705 370.265,291.705 380.247,327.655 307.881,327.655 					"/>
					<polyline style="fill:none;stroke:#391F31;stroke-width:0.25;stroke-miterlimit:10;" points="307.881,327.655 297.899,291.705 
						370.265,291.705 376.441,313.948 					"/>
				</g>
				<g>
					<g>
						<path style="fill:#BA865B;" d="M368.108,235.517l27.095-68.437l10.931-0.338c0,0,4.198,37.081-5.565,78.902
							c-2.281,9.773-12.468,15.485-21.991,12.32l0,0C369.29,254.877,364.504,244.618,368.108,235.517z"/>
					</g>
					<g>
						<g>
							<path style="fill:#BA865B;" d="M394.183,170.933l4.943-15.052l18.723,8.669c0.889,15.19-12.741,19.463-12.741,19.463
								L394.183,170.933z"/>
							<g>
								<path style="fill:#BA865B;" d="M401.313,150.554l9.478,5.71l6.105-12.298l8.206-7.851c0.807-0.772,1.067-1.955,0.658-2.994
									l0,0c-0.67-1.702-2.784-2.287-4.235-1.172l-10.206,7.848L401.313,150.554z"/>
							</g>
							<g>
								<path style="fill:#BA865B;" d="M408.626,143.029l8.117,0.494l0,0c1.176-0.916,2.828-0.9,3.986,0.039l1.731,1.403
									c1.174,0.952,1.523,2.594,0.838,3.941l-0.336,0.66l1.809,3.827c0.527,1.115,0.219,2.446-0.745,3.216l0,0l0.35,1.588
									c0.376,1.703-0.151,3.48-1.394,4.704l-2.814,2.769c-1.416,1.394-3.612,1.612-5.275,0.525l-15.768-10.313L408.626,143.029z"
									/>
							</g>
							<g>
								<path style="fill:#A76E47;" d="M424.027,156.609c0.667-0.532,0.994-1.335,0.974-2.146l-11.858,10.586l1.802,1.178
									c0.154,0.101,0.317,0.179,0.48,0.258l8.845-8.774L424.027,156.609z"/>
								<path style="fill:#A76E47;" d="M423.621,150.958l-0.658-1.392l0.336-0.66c0.369-0.725,0.429-1.533,0.231-2.275
									l-13.546,16.35l1.373,0.898L423.621,150.958z"/>
								<polygon style="fill:#A76E47;" points="405.44,146.788 408.012,158.882 415.433,145.327 405.635,146.508 								"/>
							</g>
						</g>
						<path style="fill:#A76E47;" d="M395.941,171.675l4.067-22.31l11.103-3.764c1.751-0.509,3.547,0.655,3.796,2.462l0,0
							c0.167,1.216-0.426,2.411-1.496,3.013l-5.665,3.169c0,0,10.42,13.086-4.422,23.025L395.941,171.675z"/>
						<path style="fill:#BA865B;" d="M394.183,170.933l4.612-22.782l10.895-3.726c1.77-0.605,3.655,0.541,3.933,2.39l0,0
							c0.183,1.217-0.397,2.423-1.463,3.039l-7.087,4.099c0,0,10.696,14.799-2.358,23.942L394.183,170.933z"/>
					</g>
				</g>
				<g>
					<g>
						<polygon style="fill:none;stroke:#391F31;stroke-width:0.25;stroke-miterlimit:10;" points="415.527,338.654 402.199,338.654 
							384.884,403.301 388.617,403.301 						"/>
					</g>
				</g>
				<g>
					<g>
						<polyline style="fill:#F7F7F7;stroke:#391F31;stroke-width:0.25;stroke-miterlimit:10;" points="175.732,341.827 
							425.42,341.827 425.42,327.655 175.732,327.655 						"/>
					</g>
				</g>
			</g>
		</g>
		<g>
			<g>
				<path style="opacity:0.7;fill:#39202F;" d="M557.144,403.313H192.856c-8.786,0-15.909-7.123-15.909-15.909v-13.839h396.106
					v13.839C573.053,396.19,565.93,403.313,557.144,403.313z"/>
				<g>
					<path style="fill:#FFFFFD;" d="M204.383,389.386l-10.242,6.527c-0.748,0.477-1.727-0.061-1.727-0.947v-13.055
						c0-0.887,0.979-1.424,1.727-0.947l10.242,6.527C205.076,387.933,205.076,388.944,204.383,389.386z"/>
				</g>
				<g>
					
						<line style="fill:none;stroke:#FFFFFD;stroke-width:2;stroke-linecap:round;stroke-linejoin:round;stroke-miterlimit:10;" x1="301.198" y1="388.439" x2="556.592" y2="388.439"/>
				</g>
				<g>
					
						<line style="fill:none;stroke:#D84F4C;stroke-width:2;stroke-linecap:round;stroke-linejoin:round;stroke-miterlimit:10;" x1="213.6" y1="388.439" x2="324.079" y2="388.439"/>
				</g>
				<path style="fill:#D84F4C;" d="M333.849,388.439c0,5.396-4.374,9.771-9.771,9.771c-5.396,0-9.771-4.374-9.771-9.771
					c0-5.396,4.375-9.771,9.771-9.771C329.475,378.668,333.849,383.043,333.849,388.439z"/>
				<path style="fill:#FFFFFD;" d="M328.892,388.439c0,2.658-2.155,4.813-4.813,4.813c-2.658,0-4.813-2.155-4.813-4.813
					c0-2.658,2.155-4.813,4.813-4.813C326.737,383.625,328.892,385.78,328.892,388.439z"/>
			</g>
		</g>
		<g>
			<rect x="129.913" y="410.561" style="fill:#FFFFFF;" width="475.866" height="12.76"/>
			<g>
				<path style="fill:#CBD0D8;" d="M591.471,413.48v8.425c0,8.996-7.306,16.29-16.302,16.29H146.215
					c-8.995,0-16.302-7.295-16.302-16.29v-8.425h173.084v2.523c0,4.041,3.276,7.318,7.317,7.318H411.07
					c4.041,0,7.318-3.276,7.318-7.318v-2.523H591.471z"/>
			</g>
			<g>
				<path style="fill:#D8DCE2;" d="M605.779,413.48v8.425c0,8.996-7.306,16.29-16.302,16.29H160.522
					c-8.996,0-16.302-7.295-16.302-16.29v-8.425h173.085v2.523c0,4.041,3.276,7.318,7.317,7.318h100.755
					c4.041,0,7.317-3.276,7.317-7.318v-2.523H605.779z"/>
			</g>
		</g>
	</g>
	<g>
		<path style="opacity:0.5;fill:#D8DCE2;" d="M573.049,148.335v49c0,5.45-4.42,9.86-9.87,9.86h-219.18c-5.45,0-9.87-4.41-9.87-9.86
			v-50.62h231.34C568.169,146.715,570.739,147.295,573.049,148.335z"/>
		<g>
			<g>
				<path style="opacity:0.8;fill:#FFFFFF;" d="M576.497,191.565H357.312c-5.451,0-9.869-4.418-9.869-9.869V85.636
					c0-5.45,4.418-9.869,9.869-9.869h219.185c5.45,0,9.869,4.419,9.869,9.869v96.061
					C586.366,187.147,581.948,191.565,576.497,191.565z"/>
				<path style="fill:none;stroke:#391F31;stroke-width:0.25;stroke-miterlimit:10;" d="M347.443,131.378V87.033
					c0-6.222,5.044-11.266,11.266-11.266H575.1c6.222,0,11.266,5.044,11.266,11.266v93.267c0,6.222-5.044,11.266-11.266,11.266
					H358.709c-6.222,0-11.266-5.044-11.266-11.266v-14.108"/>
			</g>
			<g>
				
					<line style="fill:none;stroke:#E1E1DF;stroke-width:0.25;stroke-miterlimit:10;" x1="372.641" y1="93.941" x2="561.169" y2="93.941"/>
			</g>
			<g>
				
					<line style="fill:none;stroke:#E1E1DF;stroke-width:0.25;stroke-miterlimit:10;" x1="399.126" y1="88.435" x2="399.126" y2="177.405"/>
				
					<line style="fill:none;stroke:#E1E1DF;stroke-width:0.25;stroke-miterlimit:10;" x1="420.5" y1="88.435" x2="420.5" y2="177.405"/>
				
					<line style="fill:none;stroke:#E1E1DF;stroke-width:0.25;stroke-miterlimit:10;" x1="441.875" y1="88.435" x2="441.875" y2="177.405"/>
				
					<line style="fill:none;stroke:#E1E1DF;stroke-width:0.25;stroke-miterlimit:10;" x1="463.249" y1="88.435" x2="463.249" y2="177.405"/>
				
					<line style="fill:none;stroke:#E1E1DF;stroke-width:0.25;stroke-miterlimit:10;" x1="484.623" y1="88.435" x2="484.623" y2="177.405"/>
				
					<line style="fill:none;stroke:#E1E1DF;stroke-width:0.25;stroke-miterlimit:10;" x1="505.997" y1="88.435" x2="505.997" y2="177.405"/>
				
					<line style="fill:none;stroke:#E1E1DF;stroke-width:0.25;stroke-miterlimit:10;" x1="527.371" y1="88.435" x2="527.371" y2="177.405"/>
				
					<line style="fill:none;stroke:#E1E1DF;stroke-width:0.25;stroke-miterlimit:10;" x1="548.746" y1="88.435" x2="548.746" y2="177.405"/>
			</g>
			<g>
				
					<line style="fill:none;stroke:#E1E1DF;stroke-width:0.25;stroke-miterlimit:10;" x1="372.641" y1="113.35" x2="561.169" y2="113.35"/>
			</g>
			<g>
				
					<line style="fill:none;stroke:#E1E1DF;stroke-width:0.25;stroke-miterlimit:10;" x1="372.641" y1="152.167" x2="561.169" y2="152.167"/>
			</g>
			<g>
				
					<line style="fill:none;stroke:#E1E1DF;stroke-width:0.25;stroke-miterlimit:10;" x1="372.641" y1="171.576" x2="561.169" y2="171.576"/>
			</g>
			<g>
				<path style="fill:none;stroke:#D88472;stroke-miterlimit:10;" d="M378.133,132.758c22.225-45.98,41.176-49.9,60.336-16.69
					c19.544,33.876,58.859,96.221,113.469,16.69"/>
				<g>
					
						<line style="fill:none;stroke:#391F31;stroke-width:0.25;stroke-miterlimit:10;" x1="371.867" y1="132.758" x2="561.169" y2="132.758"/>
				</g>
				
					<line style="fill:none;stroke:#391F31;stroke-width:0.25;stroke-miterlimit:10;" x1="378.133" y1="88.435" x2="378.133" y2="177.895"/>
				
					<text transform="matrix(1 0 0 1 553.7365 140.2517)" style="fill:#391F31; font-family:'Montserrat-ExtraBold'; font-size:7px;">X</text>
				<text transform="matrix(1 0 0 1 371.5394 97.8539)" style="fill:#391F31; font-family:'Montserrat-ExtraBold'; font-size:7px;">Y</text>
				
					<text transform="matrix(1 0 0 1 371.5674 140.2517)" style="fill:#391F31; font-family:'Montserrat-ExtraBold'; font-size:7px;">0</text>
				<polyline style="fill:none;stroke:#391F31;stroke-width:0.25;stroke-miterlimit:10;" points="376.361,90.793 378.133,88.435 
					379.906,90.793 				"/>
				<polyline style="fill:none;stroke:#391F31;stroke-width:0.25;stroke-miterlimit:10;" points="558.811,130.986 561.169,132.758 
					558.811,134.531 				"/>
			</g>
		</g>
	</g>
	<path style="fill:none;stroke:#FFFFFF;stroke-width:0.5;stroke-miterlimit:10;" d="M235.734,192.551"/>
	<g>
		<path style="opacity:0.3;fill:#D8DCE2;" d="M213.406,77.393h-84.745c-4.939,0-8.942,4.004-8.942,8.942v26.37
			c0,4.938,4.003,8.942,8.942,8.942h53.373l24.456,11.608l-4.589-11.608h11.504c4.939,0,8.942-4.003,8.942-8.942v-26.37
			C222.348,81.396,218.344,77.393,213.406,77.393z"/>
		<g>
			<path style="opacity:0.8;fill:#FFFFFF;" d="M222.804,67.995h-84.745c-4.939,0-8.942,4.004-8.942,8.942v26.37
				c0,4.938,4.003,8.942,8.942,8.942h53.373l24.456,11.608l-4.589-11.608h11.504c4.938,0,8.942-4.004,8.942-8.942v-26.37
				C231.746,71.998,227.742,67.995,222.804,67.995z"/>
			<g>
				<g>
					<path style="fill:#EEEEEE;" d="M160.143,80.889H139.29c-1.24,0-2.245,1.005-2.245,2.244l0,0c0,1.24,1.005,2.245,2.245,2.245
						h20.853c1.24,0,2.245-1.005,2.245-2.245l0,0C162.388,81.894,161.383,80.889,160.143,80.889z"/>
					<path style="fill:#EEEEEE;" d="M218.34,80.889h-47.979c-1.24,0-2.245,1.005-2.245,2.244l0,0c0,1.24,1.005,2.245,2.245,2.245
						h47.979c1.24,0,2.244-1.005,2.244-2.245l0,0C220.585,81.894,219.58,80.889,218.34,80.889z"/>
				</g>
				<g>
					<path style="fill:#EEEEEE;" d="M207.337,98.339h11.003c1.24,0,2.244-1.005,2.244-2.244l0,0c0-1.24-1.005-2.244-2.244-2.244
						h-11.003c-1.24,0-2.245,1.005-2.245,2.244l0,0C205.093,97.334,206.098,98.339,207.337,98.339z"/>
					<path style="fill:#EEEEEE;" d="M139.29,98.339h57.829c1.24,0,2.245-1.005,2.245-2.244l0,0c0-1.24-1.005-2.244-2.245-2.244
						H139.29c-1.24,0-2.245,1.005-2.245,2.244l0,0C137.046,97.334,138.051,98.339,139.29,98.339z"/>
				</g>
			</g>
		</g>
	</g>
	<g>
		<path style="fill:#154143;" d="M679.399,276.933c-0.795-7.149-2.977-14.35-6.365-20.979c-36.17,15.978-26.466-0.234-4.363-7.191
			c-6.845-9.686-16.663-17.226-28.966-20.102c-14.904-3.473-31.333,8.366-41.239,24.727c18.047,5.916,16.145,29.399-3.83,7.215
			c-3.116,6.814-5.056,14.043-5.359,21.117c-0.775,17.435,8.447,33.748,34.687,39.295
			C666.224,330.001,682.421,303.865,679.399,276.933z M652.731,270.129c10.948-0.53-3.387,12.928-12.021,7.612
			C635.316,274.408,641.784,270.66,652.731,270.129z"/>
		<path style="fill:none;stroke:#405650;stroke-miterlimit:10;" d="M621.981,424.965c-1.514-145.625,17.717-196.3,17.717-196.3"/>
		<g>
			<path style="fill:#5A7F6C;" d="M605.054,285.508c-0.768,24.918-9.731,12.953-6.134-4.059
				c-12.948-7.217-30.124-8.876-46.975,0.041c-13.616,7.217-18.378,18.878-17.141,30.69c22.943-5.814,31.624,7.884,1,5.536
				c6.639,25.619,39.731,48.696,70.134,24.144C628.228,323.862,622.486,299.152,605.054,285.508z M577.906,324.051
				c-11.62,5.795-14.076-3.153-3.581-6.61C581.774,314.984,589.521,318.232,577.906,324.051z"/>
			<path style="fill:none;stroke:#405650;stroke-miterlimit:10;" d="M621.896,402.291c-11.926-87.387-69.958-120.806-69.958-120.806
				"/>
		</g>
		<g>
			<path style="fill:#5A7F6C;" d="M693.732,353.135c14.479-13.911,18.742-39.642,10.654-48.768
				c-7.635-8.628-18.69-11.236-29.921-9.919c0.209,16.801-14.256,21.952-7.845,1.562c-26.843,7.375-50.304,34.985-24.684,54.363
				c19.511,14.737,35.171,14.252,46.403,7.042C652.655,349.607,672.604,342.682,693.732,353.135z M688.389,325.196
				c10.026,4.716,8.042,7.784-3.728,6.879C672.916,331.173,675.422,319.146,688.389,325.196z"/>
			<path style="fill:none;stroke:#405650;stroke-miterlimit:10;" d="M621.896,412.198c9.802-86.737,82.488-107.82,82.488-107.82"/>
		</g>
		<path style="fill:#EBCE8B;" d="M647.947,449.253h-52.05c-8.391,0-15.193-6.802-15.193-15.193v-47.927h82.435v47.927
			C663.14,442.451,656.338,449.253,647.947,449.253z"/>
		<path style="fill:none;stroke:#FFFFFD;stroke-width:2;stroke-miterlimit:10;" d="M580.704,397.949
			c6.866,0,6.866,8.683,13.732,8.683c6.868,0,6.868-8.683,13.736-8.683c6.87,0,6.87,8.683,13.74,8.683
			c6.868,0,6.868-8.683,13.736-8.683c6.873,0,6.873,8.683,13.745,8.683c6.873,0,6.873-8.683,13.746-8.683"/>
	</g>
	<polygon style="fill:#EBCE8B;" points="121.464,281.129 71.152,232.971 114.297,239.64 	"/>
	<g>
		<g>
			<path style="opacity:0.5;fill:#D8DCE2;" d="M424.909,228.884h74.627c5.45,0,9.869,4.419,9.869,9.869v60.906
				c0,5.45-4.418,9.869-9.869,9.869h-74.627c-5.45,0-9.869-4.418-9.869-9.869v-60.906
				C415.04,233.303,419.459,228.884,424.909,228.884z"/>
			<g>
				<g>
					<path style="opacity:0.8;fill:#FFFFFF;" d="M437.203,216.997h74.627c5.451,0,9.869,4.418,9.869,9.869v60.906
						c0,5.45-4.418,9.869-9.869,9.869h-74.627c-5.45,0-9.869-4.418-9.869-9.869v-60.906
						C427.334,221.416,431.753,216.997,437.203,216.997z"/>
					<path style="fill:none;stroke:#391F31;stroke-width:0.25;stroke-miterlimit:10;" d="M521.699,277.184v9.191
						c0,6.222-5.044,11.266-11.266,11.266H438.6c-6.222,0-11.266-5.044-11.266-11.266v-58.111c0-6.222,5.044-11.266,11.266-11.266
						h71.833c6.222,0,11.266,5.044,11.266,11.266v14.108"/>
				</g>
			</g>
		</g>
		<g>
			<g>
				<g>
					
						<line style="fill:none;stroke:#E1E1DF;stroke-width:0.25;stroke-linecap:round;stroke-linejoin:round;" x1="457.671" y1="263.891" x2="458.012" y2="262.952"/>
					
						<line style="fill:none;stroke:#E1E1DF;stroke-width:0.25;stroke-linecap:round;stroke-linejoin:round;stroke-dasharray:1.9207,0.9604;" x1="458.34" y1="262.049" x2="469.975" y2="230.003"/>
					
						<line style="fill:none;stroke:#E1E1DF;stroke-width:0.25;stroke-linecap:round;stroke-linejoin:round;" x1="470.139" y1="229.551" x2="470.48" y2="228.611"/>
				</g>
			</g>
			<g>
				<g>
					<polyline style="fill:none;stroke:#E1E1DF;stroke-width:0.25;stroke-linecap:round;stroke-linejoin:round;" points="
						443.214,271.427 442.274,271.085 443.18,270.662 					"/>
					
						<polyline style="fill:none;stroke:#E1E1DF;stroke-width:0.25;stroke-linecap:round;stroke-linejoin:round;stroke-dasharray:2.0203,1.0102;" points="
						444.095,270.234 457.671,263.891 491.536,276.187 					"/>
					<polyline style="fill:none;stroke:#E1E1DF;stroke-width:0.25;stroke-linecap:round;stroke-linejoin:round;" points="
						492.011,276.36 492.951,276.701 492.045,277.124 					"/>
					
						<polyline style="fill:none;stroke:#E1E1DF;stroke-width:0.25;stroke-linecap:round;stroke-linejoin:round;stroke-dasharray:2.0203,1.0102;" points="
						491.13,277.552 477.554,283.895 443.688,271.599 					"/>
				</g>
			</g>
			
				<rect x="447.553" y="241.084" transform="matrix(0.94 0.3413 -0.3413 0.94 116.6786 -143.5443)" style="fill:none;stroke:#5A7F6C;stroke-linejoin:round;stroke-miterlimit:10;" width="37.533" height="37.533"/>
			<polygon style="fill:none;stroke:#EBCE8B;stroke-linejoin:round;stroke-miterlimit:10;" points="477.555,283.895 
				492.936,276.743 505.745,241.463 490.364,248.615 			"/>
			<polygon style="fill:none;stroke:#D88472;stroke-linejoin:round;stroke-miterlimit:10;" points="490.363,248.615 
				455.083,235.805 470.48,228.611 505.76,241.421 			"/>
			
				<text transform="matrix(0.9639 0.2664 -0.2664 0.9639 476.4363 240.4775)" style="fill:#D88472; font-family:'Montserrat-ExtraBoldItalic'; font-size:9px;">b</text>
			
				<text transform="matrix(0.9639 0.2664 -0.2664 0.9639 463.6263 260.6718)" style="fill:#5A7F6C; font-family:'Montserrat-ExtraBoldItalic'; font-size:9px;">a</text>
			
				<text transform="matrix(0.9894 0.145 -0.145 0.9894 488.6048 265.2999)" style="fill:#EBCE8B; font-family:'Montserrat-ExtraBoldItalic'; font-size:9px;">c</text>
		</g>
	</g>
	<g>
		<g>
			<polygon style="fill:#EBCE8B;" points="664.993,157.518 625.968,100.625 612.826,134.18 			"/>
			<path style="fill:#D88472;" d="M672.15,197.527l-30.132,9.865c-2.726-8.326,1.815-17.275,10.133-19.999
				C660.477,184.668,669.424,189.202,672.15,197.527z"/>
			<path style="fill:#5A7F6C;" d="M305.82,78.904l17.011-11.995c3.314,4.7,2.188,11.192-2.508,14.503
				C315.623,84.726,309.134,83.604,305.82,78.904z"/>
			<circle style="fill:#5A7F6C;" cx="76.158" cy="332.661" r="5.006"/>
			<path style="fill:#E2B754;" d="M699.639,393.252c0,2.765-2.241,5.006-5.006,5.006c-2.765,0-5.006-2.241-5.006-5.006
				c0-2.765,2.241-5.006,5.006-5.006C697.398,388.246,699.639,390.487,699.639,393.252z"/>
			
				<ellipse transform="matrix(0.2298 -0.9732 0.9732 0.2298 -74.8243 225.4524)" style="fill:#D88472;" cx="105.023" cy="159.998" rx="8.716" ry="8.716"/>
		</g>
		<g>
			<path style="fill:#FFFFFF;" d="M250.983,51.354c0,1.804-1.462,3.267-3.266,3.267c-1.804,0-3.267-1.462-3.267-3.267
				s1.462-3.267,3.267-3.267C249.52,48.088,250.983,49.55,250.983,51.354z"/>
			<path style="fill:#FFFFFF;" d="M419.746,48.053c0-1.823-1.478-3.302-3.302-3.302c-1.823,0-3.302,1.478-3.302,3.302
				c0,1.823,1.478,3.302,3.302,3.302C418.268,51.354,419.746,49.876,419.746,48.053z"/>
			<path style="fill:#FFFFFF;" d="M123.618,367.415c0,3.396-2.753,6.15-6.15,6.15s-6.15-2.753-6.15-6.15
				c0-3.396,2.753-6.15,6.15-6.15S123.618,364.019,123.618,367.415z"/>
			<circle style="fill:#FFFFFF;" cx="616.938" cy="175.483" r="4.957"/>
			<circle style="fill:#FFFFFF;" cx="98.228" cy="205.745" r="3.063"/>
			<circle style="fill:#FFFFFF;" cx="680.731" cy="232.722" r="2.389"/>
			<path style="fill:#FFFFFF;" d="M93.394,285.517c0,2.215-1.795,4.01-4.01,4.01c-2.215,0-4.01-1.795-4.01-4.01
				c0-2.215,1.795-4.01,4.01-4.01C91.598,281.507,93.394,283.302,93.394,285.517z"/>
			<path style="fill:#FFFFFF;" d="M326.791,123.487c0-2.896-2.348-5.244-5.244-5.244c-2.896,0-5.244,2.348-5.244,5.244
				c0,2.896,2.348,5.244,5.244,5.244C324.443,128.73,326.791,126.382,326.791,123.487z"/>
		</g>
		<g>
			<g>
				<rect x="105.329" y="180.531" style="fill:#D8DCE2;" width="24.584" height="5.838"/>
				<rect x="105.329" y="189.983" style="fill:#D8DCE2;" width="24.584" height="5.838"/>
			</g>
			<g>
				<rect x="260.289" y="55.237" style="fill:#D8DCE2;" width="24.584" height="5.838"/>
				
					<rect x="260.289" y="55.237" transform="matrix(-1.836970e-16 1 -1 -1.836970e-16 330.7369 -214.425)" style="fill:#D8DCE2;" width="24.584" height="5.838"/>
			</g>
			<g>
				
					<rect x="599.689" y="199.763" transform="matrix(0.7071 -0.7071 0.7071 0.7071 35.9264 492.0983)" style="fill:#D8DCE2;" width="24.584" height="5.838"/>
				
					<rect x="599.689" y="199.763" transform="matrix(0.7071 0.7071 -0.7071 0.7071 322.5628 -373.3716)" style="fill:#D8DCE2;" width="24.584" height="5.838"/>
			</g>
			<g>
				
					<rect x="445.06" y="45.134" transform="matrix(0.7071 -0.7071 0.7071 0.7071 99.9768 337.4707)" style="fill:#D8DCE2;" width="24.584" height="5.838"/>
				<g>
					<circle style="fill:#D8DCE2;" cx="450.667" cy="41.368" r="3.418"/>
					<circle style="fill:#D8DCE2;" cx="464.036" cy="54.738" r="3.418"/>
				</g>
			</g>
		</g>
	</g>
</g>
</svg>
