<?xml version="1.0" encoding="UTF-8"?>
<svg id="Layer_2" data-name="Layer 2" xmlns="http://www.w3.org/2000/svg" viewBox="0 0 454.33 350.88">
  <defs>
    <style>
      .cls-1 {
        fill: #4ea9df;
        font-family: Poppins-Bold, Poppins;
        font-size: 112.47px;
        font-weight: 700;
      }

      .cls-1, .cls-2, .cls-3 {
        isolation: isolate;
      }

      .cls-2 {
        font-family: Poppins-Medium, Poppins;
        font-size: 15.6px;
        font-weight: 500;
        letter-spacing: .27em;
      }

      .cls-2, .cls-4 {
        fill: #231f20;
      }

      .cls-4 {
        stroke-width: 0px;
      }
    </style>
  </defs>
  <g id="Layer_2-2" data-name="Layer 2">
    <g id="Layer_1-2" data-name="Layer 1-2">
      <g>
        <path class="cls-4" d="m179.28,110.45v85.02c0,4.02,0,8.03,0,12.05,0,1.5-.46,2.86-1.74,3.8-.5.37-1.18.68-1.8.72-1.5.1-3.03-.04-4.53.06-2.04.13-4.07.49-6.11.57-2.23.08-4.47,0-6.7-.11-1.32-.07-2.64-.27-3.94-.51-1.6-.3-3.18-.68-4.76-1.06-1.32-.32-2.07-.02-2.88,1.21-2.69,4.07-5.8,7.9-10.48,10.04-2.56,1.17-5.49,1.59-8.09,2.7-3.22,1.39-6.56,1.17-9.84.95-2.69-.18-5.43-.75-7.96-1.62-2.67-.92-5.27-2.19-7.66-3.67-3.11-1.93-5.42-4.73-7.45-7.68-.96-1.4-1.59-3-2.48-4.45-.22-.37-.83-.68-1.29-.73-1.09-.12-2.21.04-3.29-.1-2.56-.33-5.23-.44-7.63-1.24-3.17-1.06-6.1-2.58-8.74-4.81-3.22-2.73-5.84-5.78-7.62-9.41-1.18-2.41-1.86-5.07-2.52-7.68-.4-1.59-.8-2.27-2.58-2.24-3.81.07-7.42-.87-10.69-2.51-3.62-1.82-6.88-4.28-9.4-7.43-2.17-2.73-3.98-5.67-4.64-9.12-.34-1.78-.7-3.56-.97-5.35-.19-1.31-.9-2.01-2.23-2.23-.86-.15-1.69-.51-2.53-.79-.34-.11-.68-.26-1.02-.38-2.22-.82-4.54-1.47-6.64-2.51-1.91-.95-3.79-2.14-5.33-3.58-2.76-2.58-5.46-5.26-7.79-8.19-1.81-2.28-3.32-4.89-4.38-7.56-1.11-2.8-2.02-5.69-2.72-8.66-1.04-4.41-.92-8.77-.71-13.14.14-2.94,1.13-5.85,1.81-8.76.3-1.29.63-2.62,1.2-3.81,1.34-2.78,2.71-5.55,4.29-8.21,1.94-3.28,4.43-6.18,7.49-8.58,1.64-1.29,3.36-2.51,5.13-3.65,1.66-1.06,3.36-2.1,5.16-2.91,1.45-.66,3.05-1.14,4.63-1.38,2.62-.4,3.25-1.19,3.78-3.62.53-2.47,1.58-4.84,2.54-7.21,1.52-3.73,4.57-6.4,7.41-9.18,1.02-1,2.44-1.67,3.76-2.34,3.75-1.89,7.67-3.23,11.98-3.35,1.32-.03,1.71-1,1.95-2.02.48-2.03.91-4.07,1.42-6.1.74-2.96,2.31-5.51,4.13-8,1.91-2.62,4.21-4.85,6.87-6.66,2.47-1.68,5.06-3.14,8.09-4.04,2.89-.86,5.76-.92,8.64-1.03,2.12-.08,2.88-1.3,3.53-2.71,1.76-3.78,4.14-7.1,7.59-9.64,1.86-1.36,3.81-2.64,5.85-3.74,3.09-1.67,6.49-2.58,10.03-2.79,2.56-.15,5.14-.16,7.69,0,4.22.26,8.19,1.49,11.69,3.72,2.44,1.55,4.64,3.46,6.88,5.29.86.7,1.48.74,2.37.08,3.14-2.31,6.35-4.38,10.39-5.22,2.68-.56,5.34-.63,8.02-.85,1.2-.1,2.32-.85,3.52-1.17,1.21-.33,2.48-.74,3.7-.67,3.98.22,7.64-1.08,11.43-1.83.89-.18,1.81-.32,2.72-.33,5.27-.02,10.56-.27,15.8.1,3.73.27,7.47,1.1,10.96,2.61,2.57,1.11,5.33,1.87,7.73,3.23,5.15,2.93,10.07,6.15,14.08,10.56,3.83,4.21,7.13,8.72,9.57,13.75,1.21,2.49,1.87,5.23,2.72,7.88.45,1.41.74,2.86,1.14,4.29.33,1.18,1.06,1.49,2.37,1.31,4.84-.65,9.68-1.69,14.6-1.13,4.71.53,9.5,1.07,13.8,3.06,4.45,2.06,8.94,4.21,12.59,7.47,3.68,3.3,7.17,6.8,9.49,11.18,1.34,2.53,2.78,5.03,3.93,7.63.71,1.61,1,3.4,1.43,5.12.42,1.69.75,3.4,1.19,5.08.08.28.54.6.87.67,3.61.73,7.06,1.82,10.49,3.16,4.19,1.63,8.14,3.55,11.49,6.39,2.78,2.36,5.5,4.87,7.74,7.69,2.59,3.26,4.64,6.87,6.3,10.73,2.9,6.74,3.37,13.68,2.83,20.75-.18,2.33-1.13,4.62-1.78,6.92-.35,1.25-.66,2.53-1.24,3.68-1.45,2.92-2.82,5.91-4.64,8.62-2.34,3.47-5.11,6.69-8.57,9.25-2.57,1.9-5.11,3.83-8.1,5.23-3.72,1.75-7.67,2.68-11.61,3.66-1.43.36-3.01.25-4.51.25-24.98.02-49.96.02-74.95.03-12.65,0-25.3-.06-37.95.04-3.1.02-4.42-1.22-4.6-3.93-.13-1.89-.42-3.96,1.82-5.05.77-.37,1.73-.56,2.61-.56,19.85-.03,39.7-.02,59.55-.03,18.06,0,36.12-.02,54.18,0,2.93,0,5.63-.77,8.28-1.81,1.82-.72,3.77-1.31,5.35-2.37,3.56-2.39,7.31-4.63,9.61-8.37,1.4-2.28,2.93-4.49,4.27-6.8.63-1.09,1.04-2.33,1.36-3.54,1.39-5.34,2.13-10.73.56-16.16-.81-2.8-1.42-5.71-2.69-8.31-1.87-3.82-4.48-7.22-7.79-10.12-2.69-2.37-5.5-4.57-8.82-6.01-2.39-1.04-5.01-1.59-7.43-2.59-3.63-1.51-7.44-1.09-11.2-1.19-1.39-.04-1.51-.88-1.59-1.83-.23-2.91-.49-5.83-.64-8.74-.17-3.15-1.29-6.05-2.67-8.83-1.1-2.23-2.33-4.47-3.93-6.38-3.59-4.3-7.63-8.2-13.08-10.42-1.75-.71-3.68-1.11-5.25-2.08-2.48-1.52-5.29-1.15-7.92-1.7-1.65-.34-3.45-.06-5.18.02-.86.04-1.72.34-2.58.35-3.13.03-5.93,1.18-8.68,2.4-2.78,1.24-5.59,2.51-8.13,4.13-3.09,1.96-5.56,4.66-7.5,7.67-1.61,2.5-3.09,5.13-4.13,7.88-.84,2.21-1.04,4.66-1.34,7.02-.22,1.74-.3,1.95-2.12,1.95-2.2,0-4.4.06-6.6-.04-2.94-.13-5.47.99-8.11,2-3.55,1.35-6.3,3.52-8.46,6.4-1.15,1.53-2.18,3.24-2.81,5.01-.86,2.41-1.3,4.95-1.89,7.44-.37,1.58-1.57,2.35-3.05,2.64-1.68.33-3.36.1-4.42-1.39-.38-.53-.45-1.31-.49-1.99-.23-3.65.59-7.08,1.95-10.53,2.32-5.84,6.04-10.6,11.35-14.11,2.44-1.61,4.89-3.38,7.97-3.98,2.08-.41,4.07-1.28,6.15-1.58,1.95-.28,2.4-1.67,2.83-2.94.75-2.24,1.63-4.37,3.04-6.33,1.15-1.6,1.97-3.43,3.23-4.93,1.53-1.83,3.44-3.35,5.04-5.13,2.12-2.36,4.97-3.75,7.56-5.49.6-.4,1.13-1.34,1.12-2.03-.07-3.93-1.25-7.7-2.89-11.2-2.13-4.54-5.03-8.68-8.73-12.32-2.61-2.58-5.44-4.81-8.51-6.83-2.85-1.87-5.76-3.66-9.01-4.79-5.82-2.03-11.87-2.82-18.04-2.33-3.36.27-6.7.8-10.04,1.23-1.12.15-1.67.86-1.73,1.9-.08,1.39-.18,2.79-.17,4.19,0,26.99.03,53.97.04,80.96v12.71h.03Zm-12.73-8.65h-.02v-12.45c0-1.87-.26-2.08-2.25-2.07-4.49.02-8.99.08-13.48,0-.91-.02-2.01-.38-2.69-.95-2.22-1.87-4.29-3.89-6.4-5.88-1.34-1.26-1.99-1.29-3.27-.05-2.2,2.14-4.37,4.31-6.61,6.41-4.18,3.9-8.39,7.76-12.61,11.62-.92.84-2,1.24-3.34,1.23-6.33-.03-12.65.06-18.98-.02-1.05-.01-2.31-.44-3.09-1.09-2.26-1.89-4.32-3.99-6.46-6-3.44-3.24-6.82-6.53-10.33-9.68-2.17-1.95-3.6-4.02-3.23-7.06.28-2.29.06-4.62.09-6.94.02-1.44-.33-2.64-1.45-3.77-2.82-2.86-6.23-4.46-10.3-4.4-3.82.06-7.14,1.63-9.95,4.06-2.36,2.05-3.67,4.58-3.55,7.74.11,3.1,0,6.2.05,9.3.02,1.27-.59,1.86-1.87,1.9-.55.02-1.1.04-1.65,0-4.65-.25-8.98,1.01-13.07,2.9-3.83,1.76-7.22,4.08-9.95,7.35-3.29,3.94-5.69,8.28-6.75,13.12-1.2,5.53-1.26,11.11.56,16.68,1.1,3.37,2.54,6.52,4.72,9.3,5.19,6.64,11.99,10.57,20.88,10.75,1.65.03,3.3.07,4.95.11,1.96.04,2.19.26,2.19,2.16,0,3.89-.08,7.77.02,11.66.04,1.3.39,2.64.86,3.88,1.86,4.95,5.63,7.49,11.12,7.79,2.78.15,5.61-.02,7.97-1.36,2.04-1.15,3.7-2.95,5.43-4.56,3.3-3.07,6.55-6.19,9.79-9.31,2.43-2.33,4.83-4.7,7.25-7.05,1.28-1.24,2.66-2.12,4.66-2.1,6.88.06,13.75.04,20.63-.06,1.55-.02,2.77.38,3.82,1.37,3.48,3.26,6.97,6.51,10.41,9.81,2.64,2.52,5.21,5.11,7.82,7.66.91.89,1.88,1.51,3.32,1.5,7.66-.03,15.31.02,22.97.06,1.23,0,1.82-.41,1.8-1.7-.06-4.89,0-9.78-.03-14.67,0-2.18-.1-2.21-2.46-2.21-7.29,0-14.58-.07-21.87-.05-1.54,0-2.75-.56-3.78-1.54-2.28-2.18-4.5-4.43-6.82-6.58-5.11-4.74-10.31-9.39-15.35-14.2-.88-.84-1.68-1.02-2.75-1.02-19.44,0-38.87-.02-58.31.03-2.14,0-4.2-.17-6.44.88-1.98.93-4.67.92-7.13-.56-2.5-1.5-3.99-3.4-4.12-6.02-.08-1.74.45-3.58,1.03-5.27.51-1.47,1.82-2.38,3.32-3.1,2.44-1.18,4.96-1.12,7.28-.23,2.34.9,4,2.86,4.68,5.18.44,1.48,1.19,1.69,2.52,1.69,22.1-.02,44.19,0,66.29,0,.55,0,1.15.09,1.63-.09.45-.17.88-.6,1.14-1.01.63-.99,1.06-2.09,1.73-3.04,1.7-2.37,4.54-3.06,7.11-4.07,1.11-.44,2.35-.31,3.39.48.24.18.55.31.84.39,3.22.87,5.12,3.1,6.33,5.85.46,1.05.96,1.45,2.05,1.45,6.01,0,12.01,0,18.02.03,1.22,0,1.71-.39,1.69-1.61-.06-4.19-.02-8.38-.02-12.58h.02Zm-20.45-57.64v.21h18.01c1.96,0,2.42-.45,2.42-2.33v-23.45c0-1.83-.63-2.42-2.54-2.05-2.3.45-4.67.39-6.94,1.34-2.74,1.15-5.1,2.63-6.9,4.87-.98,1.22-2,2.04-3.72,1.99-2.66-.07-5.32.09-7.97,0-.71-.03-1.72-.44-2.06-.98-2.85-4.51-6.9-7.19-12.4-8-4.32-.63-8.32.01-12.01,2.25-4.83,2.93-7.1,7.44-8.21,12.56-.46,2.12-.65,2.41-2.88,2.42-6.73.03-13.5-.54-20.01,1.97-2.72,1.05-4.45,2.5-4.5,5.29-.1,5.41-.12,10.83-.02,16.24.02.95.68,1.94,1.23,2.81.44.7,1.15,1.23,1.73,1.85,1.26,1.37,2.04,2.82,1.87,4.79-.21,2.47.05,4.98-.1,7.46-.12,1.84.7,3.24,1.91,4.42,4.46,4.36,8.97,8.68,13.55,12.92.79.74,2.03,1.42,3.08,1.45,4.39.12,8.8.07,13.19-.12,1.18-.05,2.56-.55,3.44-1.29,2.77-2.33,5.35-4.87,8-7.32,2.16-2,4.32-3.99,6.47-5.99,2.86-2.67,5.68-5.37,8.58-7.99.28-.25,1.23-.26,1.5-.02,2.87,2.59,5.66,5.27,8.49,7.89,1.46,1.36,2.81,2.72,5.24,2.56,3.29-.21,6.6-.05,9.9-.06,2,0,2.08-.08,2.08-2,0-8.08.02-16.16,0-24.23,0-2.29-.28-2.56-2.68-2.56-10.22,0-20.44.09-30.66-.05-2.43-.03-4.25.63-5.82,2.24-.46.48-.86,1.01-1.34,1.47-3.43,3.39-6.84,6.8-10.32,10.14-.93.89-1.18,1.82-1.12,3.05.13,2.84.55,5.64-.91,8.43-1.69,3.24-4.52,4.83-7.88,5.4-5.47.93-11.64-3.25-11.89-9.33-.18-4.14.99-7.58,4.74-10,2.44-1.58,5.09-2.07,7.95-1.73,1.19.14,2.16-.04,3.07-.97,2.14-2.19,4.41-4.27,6.66-6.36,2.43-2.25,5.15-4.26,7.29-6.74,1.87-2.17,4.03-2.51,6.65-2.48,5.27.07,10.54.02,15.81.02h0Zm20.44,142.46v-11.4c0-2.65,0-2.64-2.72-2.63-8.57,0-17.14-.03-25.71.04-1.56,0-2.64-.7-3.6-1.61-3.19-3.03-6.31-6.12-9.46-9.2-2.44-2.39-4.85-4.81-7.33-7.17-1.31-1.25-2.55-2.48-4.76-2.39-4.12.17-8.26.25-12.37,0-2.45-.14-4.06.89-5.64,2.31-.43.39-.75.88-1.17,1.27-4.86,4.52-9.72,9.03-14.6,13.53-1.5,1.39-2.8,2.81-2.75,5.01.11,4.84.13,9.69.17,14.54.01,1.14.54,2.01,1.5,2.65,1.77,1.17,3.66,2.07,5.85,2.27.4.04.8.16,1.2.27,1.07.29,2.13.82,3.2.84,4.53.11,9.07.09,13.61.09,1.1,0,1.67.28,2.01,1.43.65,2.21,1.27,4.52,2.51,6.45,2.87,4.47,6.73,7.83,12.58,8.46,3.07.33,6.03.15,8.75-1.26,5.36-2.8,8.79-6.96,9.57-12.89.17-1.26,1.03-2.11,2.17-2.12,2.75-.02,5.5-.04,8.25,0,.43,0,.96.11,1.26.36,2.08,1.72,4.31,3.11,6.94,4.02,2.91,1.01,5.89,1.05,8.89,1.1,1.13.02,1.66-.61,1.65-1.78-.06-4.06-.02-8.12-.02-12.18h.02Zm-33.37-57.46c.47.67.71,1.15,1.08,1.51,2.15,2.1,4.43,4.1,6.47,6.29,2.29,2.47,4.95,3.31,8.31,2.55,1.13-.25,2.37-.09,3.56-.06,3.97.08,7.95.23,11.92.26,1.52,0,2.02-.59,2.03-2.04,0-4.27-.02-8.55.02-12.82,0-1.07-.43-1.49-1.54-1.48-6.32.03-12.64,0-18.96.09-.65,0-1.42.47-1.92.94-2.6,2.39-5.28,4.56-9.21,4.48-.48,0-.96.16-1.77.3v-.02Z"/>
        <path class="cls-4" d="m321.1,182.44c.09,4.81-1.77,7.28-4.64,9-2.02,1.21-4.45,1.8-6.82,1.17-2.24-.59-4.28-1.73-5.76-3.54-.88-1.08-1.91-1.52-3.39-1.52-35.15.04-70.31.03-105.46.04h-2.2c-2.34-.05-3.61-1.34-3.64-3.68-.03-2.5.99-3.64,3.52-3.65,9.58-.03,19.16,0,28.74,0,26.17-.02,52.34-.05,78.51-.03,1.86,0,3-.48,4.1-2.08,1.86-2.71,4.78-3.85,8.26-3.7,5.46.25,8.74,4.58,8.77,8h.01Z"/>
        <path class="cls-4" d="m233.84,199.03c13.52,0,27.04-.04,40.56.04,2.03,0,3.31-.7,4.47-2.2,1.53-1.97,3.41-3.33,6.28-3.18,3.16.16,5.27,1.84,6.54,4.2,1.84,3.4,1.41,6.09-1.78,9.07-2.28,2.12-6.36,2.53-9.07.88-1.83-1.11-3.73-1.44-5.93-1.43-18.06.12-36.12.09-54.18.11-8.89,0-17.78-.02-26.68.03-1.41,0-2.58-.36-3.71-1.09-1.15-.74-1.72-2.9-1.09-4.69.42-1.2,1.42-1.72,2.77-1.72,5.27,0,10.54,0,15.81,0h26.01Z"/>
        <path class="cls-4" d="m192.43,122.47c-2.54,0-4.19-1.64-4.3-4.05-.12-2.56,2.46-4.47,4.23-4.47,2.03,0,4.37,2.39,4.39,4.42.02,2.17-2,4.1-4.32,4.1h0Z"/>
        <path class="cls-4" d="m94.05,173.76c-.44-4.42,2.24-7.25,5.92-9.41,1.17-.69,2.61-.98,3.95-1.39.37-.11.88-.15,1.22,0,2.73,1.18,5.9,1.62,7.75,4.27,1.83,2.61,2.72,5.33,2.05,8.57-.62,2.99-2.1,5.29-4.76,6.82-3.02,1.74-6.21,2.31-9.66.91-1.78-.73-3.23-1.73-4.44-3.14-1.63-1.91-2.24-4.1-2.03-6.63h0Z"/>
        <g class="cls-3">
          <text class="cls-1" transform="translate(149.87 282.72)"><tspan x="0" y="0">mind</tspan></text>
        </g>
        <g class="cls-3">
          <text class="cls-2" transform="translate(154.84 303.25)"><tspan x="0" y="0">EDUCATION | TECHNOLOGY</tspan></text>
        </g>
      </g>
    </g>
  </g>
</svg>